<?xml version="1.0" encoding="UTF-8"?>
<svg version="1.1" xmlns="http://www.w3.org/2000/svg" width="425" height="425">
<path d="M0 0 C0.84070038 -0.00705963 1.68140076 -0.01411926 2.5475769 -0.02139282 C37.65995776 -0.24936637 37.65995776 -0.24936637 52.890625 3.203125 C53.79264648 3.40180176 54.69466797 3.60047852 55.62402344 3.80517578 C75.73151955 8.35030062 94.7619963 15.40256141 112.890625 25.203125 C113.4892334 25.52249023 114.0878418 25.84185547 114.70458984 26.17089844 C164.37705918 52.84158925 200.4446521 99.97988481 216.640625 153.640625 C221.10213169 169.08316512 224.00341096 185.22450292 224.09375 201.3125 C224.10080963 202.15320038 224.10786926 202.99390076 224.11514282 203.8600769 C224.34311637 238.97245776 224.34311637 238.97245776 220.890625 254.203125 C220.59260986 255.55615723 220.59260986 255.55615723 220.28857422 256.93652344 C215.74344938 277.04401955 208.69118859 296.0744963 198.890625 314.203125 C198.57125977 314.8017334 198.25189453 315.4003418 197.92285156 316.01708984 C171.25216075 365.68955918 124.11386519 401.7571521 70.453125 417.953125 C55.01058488 422.41463169 38.86924708 425.31591096 22.78125 425.40625 C21.94054962 425.41330963 21.09984924 425.42036926 20.2336731 425.42764282 C-14.87870776 425.65561637 -14.87870776 425.65561637 -30.109375 422.203125 C-31.46240723 421.90510986 -31.46240723 421.90510986 -32.84277344 421.60107422 C-52.95026955 417.05594938 -71.9807463 410.00368859 -90.109375 400.203125 C-90.7079834 399.88375977 -91.3065918 399.56439453 -91.92333984 399.23535156 C-141.59580918 372.56466075 -177.6634021 325.42636519 -193.859375 271.765625 C-198.32088169 256.32308488 -201.22216096 240.18174708 -201.3125 224.09375 C-201.31955963 223.25304962 -201.32661926 222.41234924 -201.33389282 221.5461731 C-201.56186637 186.43379224 -201.56186637 186.43379224 -198.109375 171.203125 C-197.91069824 170.30110352 -197.71202148 169.39908203 -197.50732422 168.46972656 C-192.96219938 148.36223045 -185.90993859 129.3317537 -176.109375 111.203125 C-175.79000977 110.6045166 -175.47064453 110.0059082 -175.14160156 109.38916016 C-148.47091075 59.71669082 -101.33261519 23.6490979 -47.671875 7.453125 C-32.22933488 2.99161831 -16.08799708 0.09033904 0 0 Z " fill="#010101" transform="translate(201.109375,-0.203125)"/>
<path d="M0 0 C4.01093527 3.3390797 7.7977264 6.89714757 11.52099609 10.55175781 C12.96357299 11.96433063 14.42882755 13.3536261 15.89453125 14.7421875 C27.34409255 25.79141449 35.95443301 38.3614936 44 52 C44.35304199 52.58942383 44.70608398 53.17884766 45.06982422 53.78613281 C54.88140973 70.3469995 61.50396336 89.10475436 65 108 C65.21994629 109.09465576 65.21994629 109.09465576 65.44433594 110.21142578 C69.28876619 129.61959785 69.90324264 150.55606909 66 170 C65.76524551 171.33150865 65.53365935 172.66357851 65.3046875 173.99609375 C58.15017383 214.9836992 36.61962064 255.50351634 4 282 C3.01773438 282.81984375 2.03546875 283.6396875 1.0234375 284.484375 C-13.59350631 296.48737913 -29.72350499 305.41715858 -47 313 C-48.65708984 313.73863281 -48.65708984 313.73863281 -50.34765625 314.4921875 C-67.5686866 321.64724785 -87.2536082 325.34831281 -105.8515625 325.00390625 C-110.07849396 324.99866192 -114.23726433 325.37053329 -118.44140625 325.78125 C-121 326 -121 326 -125 326 C-125 325.34 -125 324.68 -125 324 C-125.55300781 324.16242188 -126.10601562 324.32484375 -126.67578125 324.4921875 C-129.2417004 325.05280849 -131.56299677 325.13275333 -134.1875 325.125 C-135.50814453 325.12886719 -135.50814453 325.12886719 -136.85546875 325.1328125 C-139 325 -139 325 -140 324 C-140.33 324.66 -140.66 325.32 -141 326 C-145.62 326 -150.24 326 -155 326 C-155 325.67 -155 325.34 -155 325 C-158.96 325 -162.92 325 -167 325 C-167.33 324.34 -167.66 323.68 -168 323 C-165.91891315 322.32635339 -163.8350329 321.66133202 -161.75 321 C-160.58984375 320.62875 -159.4296875 320.2575 -158.234375 319.875 C-155 319 -155 319 -151 319 C-151 318.34 -151 317.68 -151 317 C-149.02 317 -147.04 317 -145 317 C-144.67 316.34 -144.34 315.68 -144 315 C-144 315.66 -144 316.32 -144 317 C-143.34 317 -142.68 317 -142 317 C-141.67 316.01 -141.34 315.02 -141 314 C-140.37351563 313.93941406 -139.74703125 313.87882812 -139.1015625 313.81640625 C-137.87566406 313.69072266 -137.87566406 313.69072266 -136.625 313.5625 C-135.81289062 313.48128906 -135.00078125 313.40007812 -134.1640625 313.31640625 C-131.95727195 313.10909886 -131.95727195 313.10909886 -130 312 C-130.99 310.02 -130.99 310.02 -132 308 C-132.66 308 -133.32 308 -134 308 C-134 308.66 -134 309.32 -134 310 C-137.26311737 312.17541158 -138.24625194 312.1924999 -142 312 C-144.11329273 311.85766456 -144.11329273 311.85766456 -146.25 313.0625 C-149 314 -149 314 -152 313.4375 C-155.77924662 312.88635987 -156.89014336 313.95404169 -160 316 C-161.32 316 -162.64 316 -164 316 C-164 316.66 -164 317.32 -164 318 C-164.66 318 -165.32 318 -166 318 C-166 316.35 -166 314.7 -166 313 C-165.01 313.33 -164.02 313.66 -163 314 C-163.33 313.34 -163.66 312.68 -164 312 C-165.65 312 -167.3 312 -169 312 C-169 312.66 -169 313.32 -169 314 C-169.66 314 -170.32 314 -171 314 C-171 313.01 -171 312.02 -171 311 C-172.32 311 -173.64 311 -175 311 C-175 310.34 -175 309.68 -175 309 C-175.70125 309.2475 -176.4025 309.495 -177.125 309.75 C-181.22573992 310.10658608 -182.85478115 308.52984995 -186 306 C-187.875 303.75 -187.875 303.75 -189 302 C-188.67 301.34 -188.34 300.68 -188 300 C-187.01 300.33 -186.02 300.66 -185 301 C-185 301.66 -185 302.32 -185 303 C-181.04 301.02 -181.04 301.02 -177 299 C-177.969375 298.401875 -178.93875 297.80375 -179.9375 297.1875 C-183 295 -183 295 -184 292 C-183.2575 292.04125 -182.515 292.0825 -181.75 292.125 C-178.91241048 291.99601866 -177.41226062 291.42948778 -175 290 C-174.67 290.66 -174.34 291.32 -174 292 C-172.906875 292 -171.81375 292 -170.6875 292 C-167.19084451 292 -163.69574679 292.00281426 -160.19921875 292.03515625 C-158.69531358 292.04444781 -157.19140727 292.05355578 -155.6875 292.0625 C-154.94048828 292.07087891 -154.19347656 292.07925781 -153.42382812 292.08789062 C-149.1547123 292.10663126 -145.21222985 291.78669587 -141 291 C-139 291 -137 291 -135 291 C-134.01 290.67 -133.02 290.34 -132 290 C-132 289.01 -132 288.02 -132 287 C-132.6290625 286.95101563 -133.258125 286.90203125 -133.90625 286.8515625 C-138.08392811 286.48664483 -142.080303 286.07356031 -146.125 284.9375 C-149.57805753 284.10208285 -152.39643631 283.95752974 -155.921875 284.0546875 C-161.46572686 283.90879666 -166.97162385 282.27087955 -172 280 C-171.67 279.34 -171.34 278.68 -171 278 C-168.69 278.33 -166.38 278.66 -164 279 C-164 278.34 -164 277.68 -164 277 C-166.97 276.67 -169.94 276.34 -173 276 C-173.495 274.515 -173.495 274.515 -174 273 C-170.37 272.34 -166.74 271.68 -163 271 C-163 270.34 -163 269.68 -163 269 C-164.32 269 -165.64 269 -167 269 C-167 268.34 -167 267.68 -167 267 C-168.98 267 -170.96 267 -173 267 C-173 266.34 -173 265.68 -173 265 C-173.99 265 -174.98 265 -176 265 C-177.3442623 259.62295082 -177.3442623 259.62295082 -175.6875 256.625 C-174 255 -174 255 -172 255 C-172 255.66 -172 256.32 -172 257 C-171.34 257 -170.68 257 -170 257 C-169.67 256.34 -169.34 255.68 -169 255 C-168.67 255.66 -168.34 256.32 -168 257 C-167.67 256.34 -167.34 255.68 -167 255 C-166.34 255 -165.68 255 -165 255 C-164.67 255.66 -164.34 256.32 -164 257 C-163.67 256.34 -163.34 255.68 -163 255 C-159.82286247 253.85384506 -156.75611844 253.87892766 -153.40527344 253.88647461 C-152.28441345 253.88655014 -151.16355347 253.88662567 -150.00872803 253.88670349 C-148.80444153 253.89186478 -147.60015503 253.89702606 -146.359375 253.90234375 C-144.50339691 253.90446617 -144.50339691 253.90446617 -142.60992432 253.90663147 C-139.32855059 253.9112789 -136.04722627 253.92025653 -132.76586914 253.93133545 C-129.41422989 253.9415848 -126.06258852 253.94605141 -122.7109375 253.95117188 C-116.14060569 253.96219975 -109.57030689 253.97893704 -103 254 C-103 253.34 -103 252.68 -103 252 C-104.47533203 252.01740234 -104.47533203 252.01740234 -105.98046875 252.03515625 C-117.68026537 252.12654975 -129.31958943 251.64671394 -141 251 C-141 250.34 -141 249.68 -141 249 C-142.60681641 249.01740234 -142.60681641 249.01740234 -144.24609375 249.03515625 C-145.64322743 249.04453299 -147.04036299 249.05363331 -148.4375 249.0625 C-149.14455078 249.07087891 -149.85160156 249.07925781 -150.58007812 249.08789062 C-152.38693559 249.09653588 -154.19387603 249.05220011 -156 249 C-156.33 248.67 -156.66 248.34 -157 248 C-160.32947093 247.71461678 -163.65897628 247.55107367 -166.99609375 247.37890625 C-170 247 -170 247 -172 245 C-168.40094234 243.89459579 -164.98657775 243.82551593 -161.23461914 243.75048828 C-160.22631042 243.72823685 -160.22631042 243.72823685 -159.19763184 243.70553589 C-157.74029982 243.67369207 -156.28292466 243.64377723 -154.82551765 243.61557388 C-152.5069296 243.56975469 -150.18860795 243.51678552 -147.870224 243.4616394 C-141.2788553 243.30541914 -134.68739556 243.15615176 -128.09545898 243.02587891 C-124.05750564 242.94556392 -120.02003856 242.85186577 -115.98257256 242.75005722 C-114.45553775 242.71406148 -112.92837977 242.68290713 -111.40114021 242.65701675 C-98.52870998 242.43616162 -86.64742773 240.73950359 -74.875 235.25 C-74.10857178 234.89929443 -73.34214355 234.54858887 -72.55249023 234.18725586 C-46.49676384 222.00739262 -28.88299161 201.48861119 -19.10498047 174.72094727 C-15.51630051 164.3041567 -14.60907798 154.43753738 -14.625 143.4375 C-14.62631424 142.4426358 -14.62631424 142.4426358 -14.62765503 141.42767334 C-14.74247578 115.05386247 -24.4332792 90.8298537 -43 71.87890625 C-56.37175007 58.79534045 -72.11021094 50.33591396 -90 45 C-90.61351318 44.81381104 -91.22702637 44.62762207 -91.85913086 44.43579102 C-98.68117905 42.6267135 -105.57038746 42.66231108 -112.58178711 42.68432617 C-114.66639467 42.68746819 -116.74955309 42.66402273 -118.83398438 42.63867188 C-126.97624017 42.60218544 -134.2809377 43.39693474 -142.21801758 45.35473633 C-145 46 -145 46 -148 46 C-148 18.61 -148 -8.78 -148 -37 C-94.97710756 -45.83714874 -42.48788111 -33.15850425 0 0 Z " fill="#FDFDFD" transform="translate(329,70)"/>
<path d="M0 0 C0 76.56 0 153.12 0 232 C-0.33 232 -0.66 232 -1 232 C-2.07906658 226.3438927 -2.34229529 220.74987863 -2.60546875 215.01367188 C-2.7698662 211.8022528 -2.97768534 209.06694397 -4 206 C-4.05915055 204.24967338 -4.06098497 202.49709641 -4.02734375 200.74609375 C-4.01509766 199.72708984 -4.00285156 198.70808594 -3.99023438 197.65820312 C-3.95501308 195.50709513 -3.91593628 193.35604689 -3.87304688 191.20507812 C-3.85661133 189.67850586 -3.85661133 189.67850586 -3.83984375 188.12109375 C-3.82300537 187.1870874 -3.80616699 186.25308105 -3.78881836 185.29077148 C-3.77215957 182.80170072 -3.77215957 182.80170072 -6 181 C-5.34 181 -4.68 181 -4 181 C-4 180.34 -4 179.68 -4 179 C-4.66 179 -5.32 179 -6 179 C-6 175.04 -6 171.08 -6 167 C-5.34 167 -4.68 167 -4 167 C-4.31710938 166.19949219 -4.63421875 165.39898437 -4.9609375 164.57421875 C-6.21391295 160.2641716 -6.45532435 156.27678597 -6.625 151.8125 C-6.68192017 150.55699341 -6.68192017 150.55699341 -6.73999023 149.27612305 C-6.99965814 143.18364282 -7.12332655 137.09781285 -7 131 C-7.66 131 -8.32 131 -9 131 C-8.99777939 131.67794113 -8.99555878 132.35588226 -8.99327087 133.05436707 C-8.97114602 140.110865 -8.95606325 147.16735308 -8.94506836 154.22387695 C-8.94003987 156.85734457 -8.93321625 159.49080939 -8.92456055 162.12426758 C-8.91243012 165.90967498 -8.90675682 169.69504546 -8.90234375 173.48046875 C-8.89718246 174.65772018 -8.89202118 175.83497162 -8.88670349 177.04789734 C-8.88662796 178.14866104 -8.88655243 179.24942474 -8.88647461 180.38354492 C-8.884254 181.34951096 -8.88203339 182.31547699 -8.87974548 183.31071472 C-9 186 -9 186 -9.53443909 188.62837219 C-10.08402319 191.42802505 -9.67307881 193.80998968 -9.26171875 196.609375 C-8.63774595 202.3089474 -8.17631575 208.52894725 -10 214 C-9.979375 214.845625 -9.95875 215.69125 -9.9375 216.5625 C-10 219 -10 219 -12 221 C-11.34 221.66 -10.68 222.32 -10 223 C-10.3125 224.8125 -10.3125 224.8125 -11 227 C-11.78834086 230.41614374 -12.09472122 233.49531473 -12 237 C-12 237.66 -12 238.32 -12 239 C-11.67 238.34 -11.34 237.68 -11 237 C-10.34 237 -9.68 237 -9 237 C-10.4317521 242.01113235 -12.98445693 243.94469549 -17 247 C-17 246.34 -17 245.68 -17 245 C-17.66 245 -18.32 245 -19 245 C-20.01434394 241.00348489 -21.01019897 237.00265881 -22 233 C-22.21269531 232.16855469 -22.42539063 231.33710938 -22.64453125 230.48046875 C-23.85002774 225.52839324 -24.18537643 221.0978518 -24 216 C-24.66 216 -25.32 216 -26 216 C-26.06058594 216.85722656 -26.12117188 217.71445313 -26.18359375 218.59765625 C-26.95208745 229.08463949 -26.95208745 229.08463949 -27.5625 233 C-27.95933971 235.72118656 -28.08314856 238.25609759 -28 241 C-28.33 240.34 -28.66 239.68 -29 239 C-29.99 239 -30.98 239 -32 239 C-32 241.31 -32 243.62 -32 246 C-34 244 -34 244 -34.0625 240.625 C-34.041875 239.42875 -34.02125 238.2325 -34 237 C-34.32483418 235.66457061 -34.6550855 234.33038449 -35 233 C-34.67 232.34 -34.34 231.68 -34 231 C-34.66 231 -35.32 231 -36 231 C-36 229.68 -36 228.36 -36 227 C-36.2475 225.8553125 -36.2475 225.8553125 -36.5 224.6875 C-37 222 -37 222 -36.9375 218.5625 C-36.80702672 215.06582902 -36.80702672 215.06582902 -38.00390625 212.21875 C-39.44976043 207.54665649 -39.04340821 203.18684266 -38.875 198.33984375 C-38.86228258 194.82389983 -39.38284184 191.54218625 -39.9921875 188.08203125 C-41.32251005 179.95521515 -41.2204489 171.95680482 -41.125 163.75 C-41.11493687 162.22787056 -41.10581699 160.70573458 -41.09765625 159.18359375 C-41.07570133 155.45559702 -41.040291 151.72784775 -41 148 C-41 147.67 -41 147.34 -41 147 C-41 146.01 -41 145.02 -41 144 C-41.66 143.67 -42.32 143.34 -43 143 C-43 142.34 -43 141.68 -43 141 C-42.34 141 -41.68 141 -41 141 C-41 137.7 -41 134.4 -41 131 C-41.99 131 -42.98 131 -44 131 C-43.99476318 131.81154541 -43.98952637 132.62309082 -43.98413086 133.45922852 C-43.96325662 137.16031104 -43.95030664 140.86138113 -43.9375 144.5625 C-43.92912109 145.83931641 -43.92074219 147.11613281 -43.91210938 148.43164062 C-43.90888672 149.67236328 -43.90566406 150.91308594 -43.90234375 152.19140625 C-43.89710693 153.32779541 -43.89187012 154.46418457 -43.88647461 155.63500977 C-44.00513095 159.15208567 -44.44219489 162.52771145 -45 166 C-45.33 166 -45.66 166 -46 166 C-46.027193 167.58323688 -46.04648306 169.16661062 -46.0625 170.75 C-46.07410156 171.63171875 -46.08570313 172.5134375 -46.09765625 173.421875 C-46.09948505 175.94386903 -46.09948505 175.94386903 -45.43359375 178.078125 C-44.90786858 180.4083663 -45.33606603 181.72427895 -46 184 C-46.28577942 186.29020451 -46.50177349 188.58128003 -46.71875 190.87890625 C-47 193 -47 193 -48 196 C-47.34 196 -46.68 196 -46 196 C-45.89719578 201.14021105 -46.03406998 205.92886739 -47 211 C-47.12724665 213.92577279 -47.12724665 213.92577279 -46.375 216.375 C-45.92516193 219.52386652 -46.62906058 221.17747766 -48 224 C-47.67 224.33 -47.34 224.66 -47 225 C-46.76321284 227.69235776 -46.57801975 230.36498156 -46.4375 233.0625 C-46.39431641 233.82111328 -46.35113281 234.57972656 -46.30664062 235.36132812 C-46.20026367 237.24065438 -46.09960066 239.12030244 -46 241 C-45.34 241 -44.68 241 -44 241 C-44.55312735 245.02992782 -45.1558062 249.02022924 -46 253 C-46.66 253 -47.32 253 -48 253 C-48 253.66 -48 254.32 -48 255 C-47.34 255 -46.68 255 -46 255 C-46 255.66 -46 256.32 -46 257 C-46.99 257 -47.98 257 -49 257 C-50.8212485 250.33354324 -52.32089974 243.98216901 -52.59375 237.05859375 C-53.09259362 234.53079962 -54.05074786 233.62264872 -56 232 C-55.65772428 234.97065509 -55.65772428 234.97065509 -55 238 C-54.34 238.33 -53.68 238.66 -53 239 C-53.66 239 -54.32 239 -55 239 C-55.19491452 240.45736087 -55.38069358 241.91594593 -55.5625 243.375 C-55.66691406 244.18710937 -55.77132812 244.99921875 -55.87890625 245.8359375 C-56.18237328 248.04899186 -56.18237328 248.04899186 -55 250 C-55.08843078 251.98256098 -55.24358741 253.96246431 -55.4375 255.9375 C-55.73007486 258.98546339 -56 261.93737528 -56 265 C-56.99 265 -57.98 265 -59 265 C-61.56687367 261.1496895 -60.83288724 259.41430237 -60 255 C-60.680625 254.690625 -61.36125 254.38125 -62.0625 254.0625 C-64 252 -64 252 -64.04296875 249.796875 C-63.77326626 247.5097979 -63.43607646 245.26096165 -63 243 C-63.66 242.67 -64.32 242.34 -65 242 C-65.33333333 239.66666667 -65.66666667 237.33333333 -66 235 C-66.66 234.67 -67.32 234.34 -68 234 C-68 233.01 -68 232.02 -68 231 C-67.34 231 -66.68 231 -66 231 C-66 229.02 -66 227.04 -66 225 C-67.98 225 -69.96 225 -72 225 C-71.87882812 224.40574219 -71.75765625 223.81148437 -71.6328125 223.19921875 C-70.34170672 216.81321092 -69.14614408 210.41352965 -68 204 C-67.34 204 -66.68 204 -66 204 C-66 203.01 -66 202.02 -66 201 C-66.66 201 -67.32 201 -68 201 C-68 196.05 -68 191.1 -68 186 C-66.02 185.01 -66.02 185.01 -64 184 C-64.32355469 183.46503906 -64.64710937 182.93007812 -64.98046875 182.37890625 C-66.24035596 179.43916942 -66.30063581 177.12896703 -66.3125 173.9375 C-66.32925781 172.89464844 -66.34601563 171.85179687 -66.36328125 170.77734375 C-66 168 -66 168 -64.48046875 166.12890625 C-63.99191406 165.75636719 -63.50335938 165.38382813 -63 165 C-62.67 165.99 -62.34 166.98 -62 168 C-61.67 166.35 -61.34 164.7 -61 163 C-62.32 163 -63.64 163 -65 163 C-65 161.02 -65 159.04 -65 157 C-65.66 157.33 -66.32 157.66 -67 158 C-66.98839844 158.58007812 -66.97679688 159.16015625 -66.96484375 159.7578125 C-66.91252555 164.28707388 -66.99958119 168.5536942 -68 173 C-68.33 173.33 -68.66 173.66 -69 174 C-69.04063832 175.66617115 -69.042721 177.33388095 -69 179 C-69.99 179 -70.98 179 -72 179 C-72 182.96 -72 186.92 -72 191 C-73.65 190.34 -75.3 189.68 -77 189 C-76.319375 189.556875 -75.63875 190.11375 -74.9375 190.6875 C-73.9784375 191.8321875 -73.9784375 191.8321875 -73 193 C-73.3125 195.5625 -73.3125 195.5625 -74 198 C-73.67 198.99 -73.34 199.98 -73 201 C-73.27769908 203.3406065 -73.60539977 205.67624308 -74 208 C-73.01 208.33 -72.02 208.66 -71 209 C-71.66 209.33 -72.32 209.66 -73 210 C-73.72693904 211.97888961 -74.39816251 213.97954558 -75 216 C-73.68 216 -72.36 216 -71 216 C-71 216.66 -71 217.32 -71 218 C-72.32 218.33 -73.64 218.66 -75 219 C-75.66 222.3 -76.32 225.6 -77 229 C-77.66 228.67 -78.32 228.34 -79 228 C-79.09928082 220.24506486 -79.06059488 212.68931285 -78 205 C-78.66 205 -79.32 205 -80 205 C-80.02896822 200.56251365 -80.04678788 196.12505153 -80.0625 191.6875 C-80.07087891 190.42486328 -80.07925781 189.16222656 -80.08789062 187.86132812 C-80.09111328 186.65283203 -80.09433594 185.44433594 -80.09765625 184.19921875 C-80.10289307 183.08377686 -80.10812988 181.96833496 -80.11352539 180.8190918 C-80 178 -80 178 -79 175 C-79.32628529 173.66492442 -79.66124721 172.33196675 -80 171 C-80.43166905 162.4670072 -80.18678833 154.29808073 -78 146 C-78.66 145.67 -79.32 145.34 -80 145 C-79.01 145 -78.02 145 -77 145 C-77.48502991 144.20697479 -77.97005981 143.41394958 -78.4697876 142.59689331 C-80.40180135 138.05553203 -80.46484591 134.33035875 -80.48339844 129.44970703 C-80.49829315 128.5058313 -80.51318787 127.56195557 -80.52853394 126.58947754 C-80.57221296 123.47885494 -80.59276994 120.36869088 -80.609375 117.2578125 C-80.62664201 115.08836869 -80.64391505 112.91892492 -80.66119385 110.7494812 C-80.69266892 106.20519894 -80.71023348 101.66107507 -80.72070312 97.11669922 C-80.73716673 91.30321704 -80.8092827 85.49183973 -80.89461899 79.67901802 C-80.95057905 75.19902481 -80.96611874 70.71953664 -80.97071075 66.23922348 C-80.97977107 64.09658142 -81.00379313 61.95394691 -81.0432663 59.81164932 C-81.3295543 43.0830427 -81.3295543 43.0830427 -78.06150818 37.96292114 C-75.79338574 35.91102215 -73.67658185 34.45844598 -71 33 C-69.73975609 32.07013577 -68.48866361 31.12751279 -67.25390625 30.1640625 C-66.0298287 29.30849083 -64.7991632 28.46227705 -63.5625 27.625 C-62.88348633 27.16440186 -62.20447266 26.70380371 -61.50488281 26.22924805 C-44.8281645 15.10573245 -20.70828619 0 0 0 Z " fill="#656565" transform="translate(172,35)"/>
<path d="M0 0 C2.16228881 2.34619482 2.9810594 3.52174984 3.109375 6.76171875 C2.99078125 7.72722656 2.8721875 8.69273437 2.75 9.6875 C2.64171875 10.66074219 2.5334375 11.63398438 2.421875 12.63671875 C2 15 2 15 1 16 C0.95936168 17.66617115 0.957279 19.33388095 1 21 C0.01 21 -0.98 21 -2 21 C-2 24.96 -2 28.92 -2 33 C-3.65 32.34 -5.3 31.68 -7 31 C-5.9790625 31.8353125 -5.9790625 31.8353125 -4.9375 32.6875 C-4.298125 33.450625 -3.65875 34.21375 -3 35 C-3.3125 37.5625 -3.3125 37.5625 -4 40 C-3.67 40.99 -3.34 41.98 -3 43 C-3.27769908 45.3406065 -3.60539977 47.67624308 -4 50 C-3.01 50.33 -2.02 50.66 -1 51 C-1.99 51.495 -1.99 51.495 -3 52 C-3.72693904 53.97888961 -4.39816251 55.97954558 -5 58 C-3.68 58 -2.36 58 -1 58 C-1 58.66 -1 59.32 -1 60 C-2.98 60.495 -2.98 60.495 -5 61 C-5.99 65.95 -5.99 65.95 -7 71 C-7.66 70.67 -8.32 70.34 -9 70 C-9.09928082 62.24506486 -9.06059488 54.68931285 -8 47 C-8.66 47 -9.32 47 -10 47 C-10.02896822 42.56251365 -10.04678788 38.12505153 -10.0625 33.6875 C-10.07087891 32.42486328 -10.07925781 31.16222656 -10.08789062 29.86132812 C-10.09111328 28.65283203 -10.09433594 27.44433594 -10.09765625 26.19921875 C-10.10289307 25.08377686 -10.10812988 23.96833496 -10.11352539 22.8190918 C-10 20 -10 20 -9 17 C-9.3072203 15.6604088 -9.64358222 14.32734896 -10 13 C-10.06548492 11.41788427 -10.08578381 9.83329919 -10.0625 8.25 C-10.05347656 7.45078125 -10.04445313 6.6515625 -10.03515625 5.828125 C-10.02355469 5.22484375 -10.01195313 4.6215625 -10 4 C-9.67 4 -9.34 4 -9 4 C-8.67 5.65 -8.34 7.3 -8 9 C-6.02 8.01 -4.04 7.02 -2 6 C-2 4.35 -2 2.7 -2 1 C-1.34 0.67 -0.68 0.34 0 0 Z " fill="#5D5D5D" transform="translate(102,193)"/>
<path d="M0 0 C0 0.33 0 0.66 0 1 C-7.92 1.495 -7.92 1.495 -16 2 C-16.66 3.98 -17.32 5.96 -18 8 C-14.04 8 -10.08 8 -6 8 C-6 8.33 -6 8.66 -6 9 C-17.69591188 9.17691295 -29.32446893 8.62839961 -41 8 C-41 7.34 -41 6.68 -41 6 C-42.07121094 6.01160156 -43.14242187 6.02320313 -44.24609375 6.03515625 C-45.64322743 6.04453299 -47.04036299 6.05363331 -48.4375 6.0625 C-49.14455078 6.07087891 -49.85160156 6.07925781 -50.58007812 6.08789062 C-52.38693559 6.09653588 -54.19387603 6.05220011 -56 6 C-56.33 5.67 -56.66 5.34 -57 5 C-60.32947093 4.71461678 -63.65897628 4.55107367 -66.99609375 4.37890625 C-70 4 -70 4 -72 2 C-68.37174776 0.88990945 -64.89384578 0.79578033 -61.11328125 0.68359375 C-60.43072266 0.66276733 -59.74816406 0.64194092 -59.04492188 0.6204834 C-56.80089588 0.55423024 -54.55675602 0.49540116 -52.3125 0.4375 C-51.54698822 0.41632111 -50.78147644 0.39514221 -49.99276733 0.37332153 C-33.32802415 -0.08406221 -16.66970796 -0.10693092 0 0 Z " fill="#D9D9D9" transform="translate(229,313)"/>
<path d="M0 0 C0.66 0 1.32 0 2 0 C2.0501123 0.87736816 2.10022461 1.75473633 2.15185547 2.65869141 C2.34292743 5.93551049 2.54133844 9.2117179 2.74462891 12.48779297 C2.83087703 13.90168068 2.91425607 15.31574661 2.99462891 16.72998047 C3.1111383 18.77105252 3.23819281 20.81124595 3.3671875 22.8515625 C3.44050293 24.07697754 3.51381836 25.30239258 3.58935547 26.56494141 C3.99425682 29.95195804 4.80209462 32.81553268 6 36 C5.01 36.495 5.01 36.495 4 37 C3.5316735 39.58605332 3.5316735 39.58605332 3.375 42.5625 C3.30023438 43.57441406 3.22546875 44.58632812 3.1484375 45.62890625 C3.09945312 46.41136719 3.05046875 47.19382813 3 48 C3.66 48 4.32 48 5 48 C5.8989564 55.07928162 6.08119714 61.9866115 5.96289062 69.10913086 C5.92185833 72.55623812 5.89665742 75.707212 7 79 C6.01 79 5.02 79 4 79 C3.67 78.34 3.34 77.68 3 77 C2.34 77 1.68 77 1 77 C0.505 77.99 0.505 77.99 0 79 C-0.06058594 77.89140625 -0.12117187 76.7828125 -0.18359375 75.640625 C-0.26802951 74.1770718 -0.35267599 72.71353075 -0.4375 71.25 C-0.47681641 70.52039063 -0.51613281 69.79078125 -0.55664062 69.0390625 C-0.73408042 65.06169625 -0.73408042 65.06169625 -1.58227539 61.19433594 C-2.05888237 58.69068687 -1.68997786 56.6550488 -1.27786255 54.16256714 C-0.67290894 49.4542939 -0.75553246 44.68196971 -0.68359375 39.94140625 C-0.66281265 38.79711655 -0.64203156 37.65282684 -0.62062073 36.47386169 C-0.55550207 32.83679924 -0.4964161 29.19966769 -0.4375 25.5625 C-0.39427892 23.08918571 -0.3506635 20.61587827 -0.30664062 18.14257812 C-0.19985951 12.09512405 -0.0980247 6.04760201 0 0 Z " fill="#090909" transform="translate(163,166)"/>
<path d="M0 0 C0.66 0 1.32 0 2 0 C2 1.65 2 3.3 2 5 C1.01 5 0.02 5 -1 5 C-1 5.66 -1 6.32 -1 7 C0.32 6.67 1.64 6.34 3 6 C3.19335938 6.71027344 3.38671875 7.42054688 3.5859375 8.15234375 C3.84632812 9.07144531 4.10671875 9.99054688 4.375 10.9375 C4.63023438 11.85402344 4.88546875 12.77054687 5.1484375 13.71484375 C5.76660104 16.16745087 5.76660104 16.16745087 8 17 C7.34 17 6.68 17 6 17 C5.80508548 18.45736087 5.61930642 19.91594593 5.4375 21.375 C5.28087891 22.59316406 5.28087891 22.59316406 5.12109375 23.8359375 C4.81762672 26.04899186 4.81762672 26.04899186 6 28 C5.91156922 29.98256098 5.75641259 31.96246431 5.5625 33.9375 C5.26992514 36.98546339 5 39.93737528 5 43 C4.01 43 3.02 43 2 43 C-0.56687367 39.1496895 0.16711276 37.41430237 1 33 C0.319375 32.690625 -0.36125 32.38125 -1.0625 32.0625 C-3 30 -3 30 -3.04296875 27.796875 C-2.77326626 25.5097979 -2.43607646 23.26096165 -2 21 C-2.66 20.67 -3.32 20.34 -4 20 C-3.67 18.35 -3.34 16.7 -3 15 C-2.01 15.33 -1.02 15.66 0 16 C0.33 13.36 0.66 10.72 1 8 C0.34 8 -0.32 8 -1 8 C-1 8.99 -1 9.98 -1 11 C-1.99 11 -2.98 11 -4 11 C-3.67 8.36 -3.34 5.72 -3 3 C-2.01 2.67 -1.02 2.34 0 2 C0 1.34 0 0.68 0 0 Z " fill="#5F5F5F" transform="translate(111,257)"/>
<path d="M0 0 C1.4606285 2.64738916 2 3.89448334 2 7 C2.804375 7.474375 3.60875 7.94875 4.4375 8.4375 C7 10 7 10 7.5625 12.0625 C7.706875 12.701875 7.85125 13.34125 8 14 C9.9837767 15.28436734 9.9837767 15.28436734 12 16 C11.34 16 10.68 16 10 16 C10 17.32 10 18.64 10 20 C10.66 20.66 11.32 21.32 12 22 C10.35 22 8.7 22 7 22 C7 22.66 7 23.32 7 24 C6.34 24 5.68 24 5 24 C5 23.01 5 22.02 5 21 C3.68 21 2.36 21 1 21 C1 20.34 1 19.68 1 19 C0.29875 19.2475 -0.4025 19.495 -1.125 19.75 C-5.22573992 20.10658608 -6.85478115 18.52984995 -10 16 C-11.875 13.75 -11.875 13.75 -13 12 C-12.67 11.34 -12.34 10.68 -12 10 C-11.01 10.33 -10.02 10.66 -9 11 C-9 11.66 -9 12.32 -9 13 C-6.36 11.68 -3.72 10.36 -1 9 C-1.969375 8.401875 -2.93875 7.80375 -3.9375 7.1875 C-7 5 -7 5 -8 2 C-7.236875 2.04125 -6.47375 2.0825 -5.6875 2.125 C-2.77281584 2.22080824 -2.77281584 2.22080824 0 0 Z " fill="#DADADA" transform="translate(153,360)"/>
<path d="M0 0 C1.32 0.66 2.64 1.32 4 2 C3.34 2 2.68 2 2 2 C1.67 2.66 1.34 3.32 1 4 C0.34 4.66 -0.32 5.32 -1 6 C1.64 6 4.28 6 7 6 C7 6.66 7 7.32 7 8 C6.34 8.33 5.68 8.66 5 9 C5 9.66 5 10.32 5 11 C3.68 10.67 2.36 10.34 1 10 C0.67 10.66 0.34 11.32 0 12 C-4.62 12 -9.24 12 -14 12 C-14 11.67 -14 11.34 -14 11 C-17.96 11 -21.92 11 -26 11 C-26.33 10.34 -26.66 9.68 -27 9 C-24.91891315 8.32635339 -22.8350329 7.66133202 -20.75 7 C-19.58984375 6.62875 -18.4296875 6.2575 -17.234375 5.875 C-14 5 -14 5 -10 5 C-10 4.34 -10 3.68 -10 3 C-8.02 3 -6.04 3 -4 3 C-3.67 2.34 -3.34 1.68 -3 1 C-3 1.66 -3 2.32 -3 3 C-2.34 3 -1.68 3 -1 3 C-0.67 2.01 -0.34 1.02 0 0 Z " fill="#F4F4F4" transform="translate(188,384)"/>
<path d="M0 0 C2.72295744 3.08649364 3.33402334 4.84924938 3.125 8.9375 C2.96581051 14.33547073 3.300419 19.58107349 3.78125 24.95703125 C3.99877691 27.98298594 4.03626414 30.96741126 4 34 C4.66 34 5.32 34 6 34 C5.67 34.99 5.34 35.98 5 37 C5 36.34 5 35.68 5 35 C4.01 35 3.02 35 2 35 C2 37.31 2 39.62 2 42 C0 40 0 40 -0.0625 36.625 C-0.041875 35.42875 -0.02125 34.2325 0 33 C-0.32483418 31.66457061 -0.6550855 30.33038449 -1 29 C-0.67 28.34 -0.34 27.68 0 27 C-0.66 27 -1.32 27 -2 27 C-2 25.68 -2 24.36 -2 23 C-2.165 22.236875 -2.33 21.47375 -2.5 20.6875 C-3 18 -3 18 -2.9375 14.5625 C-3.00104848 10.94023678 -3.81795261 8.38853586 -5 5 C-4.67 4.34 -4.34 3.68 -4 3 C-3.01 3 -2.02 3 -1 3 C-0.67 2.01 -0.34 1.02 0 0 Z " fill="#0D0D0D" transform="translate(138,239)"/>
<path d="M0 0 C0.99 0.495 0.99 0.495 2 1 C4.54615009 1.23172827 7.07396225 1.41894529 9.625 1.5625 C10.33140625 1.60568359 11.0378125 1.64886719 11.765625 1.69335938 C13.51018537 1.79944751 15.25506697 1.90022889 17 2 C17 2.66 17 3.32 17 4 C18.31871094 3.98839844 19.63742188 3.97679687 20.99609375 3.96484375 C32.37521805 3.89673714 43.65112197 4.16705482 55 5 C55 5.66 55 6.32 55 7 C48.43501602 7.19432754 41.86972726 7.3715574 35.30395508 7.53710938 C33.07207887 7.59537868 30.84029991 7.65750963 28.60864258 7.72363281 C25.39422315 7.81819563 22.17970586 7.89870108 18.96484375 7.9765625 C17.97290512 8.00875885 16.98096649 8.0409552 15.95896912 8.0741272 C10.52724012 8.19063336 6.13005752 7.82526637 1 6 C0.67 4.02 0.34 2.04 0 0 Z " fill="#434343" transform="translate(171,317)"/>
<path d="M0 0 C0.99 0 1.98 0 3 0 C3.33 1.65 3.66 3.3 4 5 C4.99 5.33 5.98 5.66 7 6 C7 7.32 7 8.64 7 10 C7.66 10.33 8.32 10.66 9 11 C8.01 11 7.02 11 6 11 C6 12.65 6 14.3 6 16 C5.67 16 5.34 16 5 16 C4.67 13.69 4.34 11.38 4 9 C2.67770811 11.64458379 2.90322806 13.67761301 2.9375 16.625 C2.95103516 18.12933594 2.95103516 18.12933594 2.96484375 19.6640625 C2.97644531 20.43492187 2.98804687 21.20578125 3 22 C3.33 22 3.66 22 4 22 C4.1875 24.3125 4.1875 24.3125 4 27 C3 28 2 29 1 30 C0.74930087 32.62570704 0.74930087 32.62570704 1 35 C-0.485 35.495 -0.485 35.495 -2 36 C-2.33 36.99 -2.66 37.98 -3 39 C-3.66 39 -4.32 39 -5 39 C-5 38.01 -5 37.02 -5 36 C-6.32 35.34 -7.64 34.68 -9 34 C-9 33.34 -9 32.68 -9 32 C-7.35 32.66 -5.7 33.32 -4 34 C-4 30.04 -4 26.08 -4 22 C-3.01 22 -2.02 22 -1 22 C-1.33 19.69 -1.66 17.38 -2 15 C-1.67 15 -1.34 15 -1 15 C-0.83105557 13.25021843 -0.66493691 11.50016388 -0.5 9.75 C-0.4071875 8.77546875 -0.314375 7.8009375 -0.21875 6.796875 C-0.04199832 4.53697847 0 2.26679807 0 0 Z " fill="#121212" transform="translate(104,192)"/>
<path d="M0 0 C2.26044263 -0.0021965 4.52040471 -0.02040077 6.78076172 -0.03930664 C8.2143538 -0.04223896 9.6479482 -0.04422483 11.08154297 -0.04516602 C13.03858154 -0.05132935 13.03858154 -0.05132935 15.03515625 -0.05761719 C18.13623047 0.18530273 18.13623047 0.18530273 20.13623047 2.18530273 C20.13623047 2.84530273 20.13623047 3.50530273 20.13623047 4.18530273 C15.75161508 7.18530273 15.75161508 7.18530273 13.13623047 7.18530273 C13.13623047 6.52530273 13.13623047 5.86530273 13.13623047 5.18530273 C12.06501953 5.1969043 10.99380859 5.20850586 9.89013672 5.22045898 C8.49300304 5.22983572 7.09586748 5.23893604 5.69873047 5.24780273 C4.99167969 5.25618164 4.28462891 5.26456055 3.55615234 5.27319336 C1.74929487 5.28183861 -0.05764556 5.23750285 -1.86376953 5.18530273 C-2.19376953 4.85530273 -2.52376953 4.52530273 -2.86376953 4.18530273 C-6.19324046 3.89991951 -9.52274581 3.73637641 -12.85986328 3.56420898 C-15.86376953 3.18530273 -15.86376953 3.18530273 -17.86376953 1.18530273 C-12.15493285 -0.62638095 -5.9303559 -0.00064784 0 0 Z " fill="#F0F0F0" transform="translate(174.86376953125,313.814697265625)"/>
<path d="M0 0 C0.66 0 1.32 0 2 0 C2 1.65 2 3.3 2 5 C2.99 5.33 3.98 5.66 5 6 C6.16796875 7.77734375 6.16796875 7.77734375 7.1875 9.9375 C7.53167969 10.64777344 7.87585938 11.35804688 8.23046875 12.08984375 C9 14 9 14 9 16 C9.66 16 10.32 16 11 16 C10.44687265 20.02992782 9.8441938 24.02022924 9 28 C8.34 28 7.68 28 7 28 C7 28.66 7 29.32 7 30 C7.66 30 8.32 30 9 30 C9 30.66 9 31.32 9 32 C8.01 32 7.02 32 6 32 C4.18848768 25.36918133 2.68171132 19.04278312 2.40625 12.15625 C1.90355856 9.48811852 0.61609603 8.14317857 -1 6 C-0.6875 2.75 -0.6875 2.75 0 0 Z " fill="#595959" transform="translate(117,260)"/>
<path d="M0 0 C1.32 0.33 2.64 0.66 4 1 C5.16063604 5.25566547 4.76173392 8.6835078 4 13 C4.99 13.33 5.98 13.66 7 14 C6.01 14.495 6.01 14.495 5 15 C4.27306096 16.97888961 3.60183749 18.97954558 3 21 C4.32 21 5.64 21 7 21 C7 21.66 7 22.32 7 23 C5.68 23.33 4.36 23.66 3 24 C2.34 27.3 1.68 30.6 1 34 C0.34 33.67 -0.32 33.34 -1 33 C-1.09928082 25.24506486 -1.06059488 17.68931285 0 10 C-0.66 10 -1.32 10 -2 10 C-2 7.69 -2 5.38 -2 3 C-1.34 3 -0.68 3 0 3 C0 2.01 0 1.02 0 0 Z " fill="#3F3F3F" transform="translate(94,230)"/>
<path d="M0 0 C0 1.65 0 3.3 0 5 C-0.99 5 -1.98 5 -3 5 C-3 8.96 -3 12.92 -3 17 C-5.475 16.01 -5.475 16.01 -8 15 C-6.9790625 15.86625 -6.9790625 15.86625 -5.9375 16.75 C-5.298125 17.4925 -4.65875 18.235 -4 19 C-4.25 21.25 -4.25 21.25 -5 23 C-6.32 22.34 -7.64 21.68 -9 21 C-9.33 21.99 -9.66 22.98 -10 24 C-10.90238747 21.29283758 -11.11851302 19.76223232 -11.09765625 16.98828125 C-11.09443359 16.23095703 -11.09121094 15.47363281 -11.08789062 14.69335938 C-11.07951172 13.90767578 -11.07113281 13.12199219 -11.0625 12.3125 C-11.05798828 11.51521484 -11.05347656 10.71792969 -11.04882812 9.89648438 C-11.0370585 7.93095743 -11.01912348 5.96546915 -11 4 C-9 7 -9 7 -9 9 C-8.34 9 -7.68 9 -7 9 C-7 7.68 -7 6.36 -7 5 C-6.34 5 -5.68 5 -5 5 C-5 4.34 -5 3.68 -5 3 C-5.66 2.67 -6.32 2.34 -7 2 C-1.125 0 -1.125 0 0 0 Z " fill="#5E5E5E" transform="translate(103,209)"/>
<path d="M0 0 C0.33 0.66 0.66 1.32 1 2 C1.66 2 2.32 2 3 2 C2.67 4.64 2.34 7.28 2 10 C2.66 10 3.32 10 4 10 C4 10.99 4 11.98 4 13 C3.34 13 2.68 13 2 13 C1.93941406 13.74765625 1.87882812 14.4953125 1.81640625 15.265625 C1.73261719 16.25046875 1.64882812 17.2353125 1.5625 18.25 C1.48128906 19.22453125 1.40007812 20.1990625 1.31640625 21.203125 C1.04925416 23.56461753 0.64628032 25.71901065 0 28 C-0.66 27.67 -1.32 27.34 -2 27 C-1.67 26.34 -1.34 25.68 -1 25 C-2.32 25 -3.64 25 -5 25 C-4.67 22.69 -4.34 20.38 -4 18 C-3.34 18 -2.68 18 -2 18 C-2.66 17.67 -3.32 17.34 -4 17 C-4.125 10.25 -4.125 10.25 -3 8 C-3.99 7.67 -4.98 7.34 -6 7 C-5.195625 6.5875 -4.39125 6.175 -3.5625 5.75 C-0.85890282 4.26547669 -0.85890282 4.26547669 -0.1875 1.8125 C-0.125625 1.214375 -0.06375 0.61625 0 0 Z " fill="#090909" transform="translate(102,226)"/>
<path d="M0 0 C0.99 0 1.98 0 3 0 C4.06795656 5.57710648 3.82622671 10.39436958 3 16 C3.66 16 4.32 16 5 16 C4.835 16.66 4.67 17.32 4.5 18 C4.07958486 20.52249085 3.9630498 22.65179232 4 25.1875 C4 29 4 29 3 31 C3.66 31.33 4.32 31.66 5 32 C3.68 32 2.36 32 1 32 C1 31.01 1 30.02 1 29 C0.34 28.67 -0.32 28.34 -1 28 C-1.02898097 23.89584811 -1.0467922 19.79172247 -1.0625 15.6875 C-1.07087891 14.52025391 -1.07925781 13.35300781 -1.08789062 12.15039062 C-1.09111328 11.03212891 -1.09433594 9.91386719 -1.09765625 8.76171875 C-1.10289307 7.73006592 -1.10812988 6.69841309 -1.11352539 5.63549805 C-1 3 -1 3 0 0 Z " fill="#161616" transform="translate(128,166)"/>
<path d="M0 0 C0.66 0 1.32 0 2 0 C2 0.99 2 1.98 2 3 C2.66 3 3.32 3 4 3 C5.63627984 16.9960365 5.63627984 16.9960365 5 22 C4.34 22.66 3.68 23.32 3 24 C2.67 22.68 2.34 21.36 2 20 C1.01 20 0.02 20 -1 20 C-2.00109515 16.68929162 -2.10356134 13.69915231 -2.0625 10.25 C-2.05347656 9.26515625 -2.04445313 8.2803125 -2.03515625 7.265625 C-2.02355469 6.51796875 -2.01195313 5.7703125 -2 5 C-1.67 5 -1.34 5 -1 5 C-0.67 3.35 -0.34 1.7 0 0 Z " fill="#0E0E0E" transform="translate(127,195)"/>
<path d="M0 0 C0.66 0 1.32 0 2 0 C2 1.65 2 3.3 2 5 C1.01 5 0.02 5 -1 5 C-1 5.66 -1 6.32 -1 7 C0.32 6.67 1.64 6.34 3 6 C3.19335938 6.71027344 3.38671875 7.42054688 3.5859375 8.15234375 C3.84632812 9.07144531 4.10671875 9.99054688 4.375 10.9375 C4.63023438 11.85402344 4.88546875 12.77054687 5.1484375 13.71484375 C5.76660104 16.16745087 5.76660104 16.16745087 8 17 C7.01 17.33 6.02 17.66 5 18 C4.67 18.33 4.34 18.66 4 19 C2.68 19 1.36 19 0 19 C-1.34164079 19.2981424 -2.67851173 19.62243192 -4 20 C-3.67 18.35 -3.34 16.7 -3 15 C-2.01 15.33 -1.02 15.66 0 16 C0.33 13.36 0.66 10.72 1 8 C0.34 8 -0.32 8 -1 8 C-1 8.99 -1 9.98 -1 11 C-1.99 11 -2.98 11 -4 11 C-3.67 8.36 -3.34 5.72 -3 3 C-2.01 2.67 -1.02 2.34 0 2 C0 1.34 0 0.68 0 0 Z " fill="#393939" transform="translate(111,257)"/>
<path d="M0 0 C2.375 0.1875 2.375 0.1875 5 1 C6.3125 3.5625 6.3125 3.5625 7 6 C2.8803623 7.29243536 -0.66831683 8.26252625 -5 8 C-5.33 8.66 -5.66 9.32 -6 10 C-12.42857143 11.28571429 -12.42857143 11.28571429 -15 10 C-15 9.34 -15 8.68 -15 8 C-15.66 7.34 -16.32 6.68 -17 6 C-15.948125 6.0928125 -15.948125 6.0928125 -14.875 6.1875 C-11.34739788 5.95743899 -9.06015649 4.70799432 -6 3 C-6 3.66 -6 4.32 -6 5 C-3.36 4.34 -0.72 3.68 2 3 C2 2.34 2 1.68 2 1 C1.34 0.67 0.68 0.34 0 0 Z " fill="#191919" transform="translate(193,377)"/>
<path d="M0 0 C0.33 0 0.66 0 1 0 C1.04898438 0.79664063 1.09796875 1.59328125 1.1484375 2.4140625 C1.70029395 10.38157314 1.70029395 10.38157314 4 18 C3.34 18.33 2.68 18.66 2 19 C1.5316735 21.58605332 1.5316735 21.58605332 1.375 24.5625 C1.30023438 25.57441406 1.22546875 26.58632812 1.1484375 27.62890625 C1.09945312 28.41136719 1.05046875 29.19382813 1 30 C1.66 30 2.32 30 3 30 C3.19627391 31.58226965 3.38165538 33.16589271 3.5625 34.75 C3.66691406 35.63171875 3.77132812 36.5134375 3.87890625 37.421875 C3.99684108 39.93274551 3.95716642 41.67769458 3 44 C1.515 44.495 1.515 44.495 0 45 C0 30 0 15 0 0 Z " fill="#2B2B2B" transform="translate(165,184)"/>
<path d="M0 0 C0.99 0.495 0.99 0.495 2 1 C4.0374763 1.22858114 6.08040303 1.41024278 8.125 1.5625 C9.76855469 1.68818359 9.76855469 1.68818359 11.4453125 1.81640625 C12.28835937 1.87699219 13.13140625 1.93757813 14 2 C13.67 2.66 13.34 3.32 13 4 C18.445 4.495 18.445 4.495 24 5 C24 5.66 24 6.32 24 7 C21.47970021 7.22389218 18.96002743 7.42942078 16.4375 7.625 C15.73302734 7.68945312 15.02855469 7.75390625 14.30273438 7.8203125 C9.37705301 8.18349638 5.67412034 7.60922409 1 6 C0.67 4.02 0.34 2.04 0 0 Z " fill="#151515" transform="translate(171,317)"/>
<path d="M0 0 C0.66 0.33 1.32 0.66 2 1 C2 4.3 2 7.6 2 11 C2.66 11 3.32 11 4 11 C4.33 11.66 4.66 12.32 5 13 C5.66 13.33 6.32 13.66 7 14 C7.59355614 16.64860427 7.74209269 19.29197322 8 22 C5.66666667 22 3.33333333 22 1 22 C-1.40041068 7.94045175 -1.40041068 7.94045175 -1 1 C-0.67 0.67 -0.34 0.34 0 0 Z " fill="#5D5D5D" transform="translate(132,207)"/>
<path d="M0 0 C1.4606285 2.64738916 2 3.89448334 2 7 C3.64821244 8.03013277 5.31503702 9.03114628 7 10 C7 10.66 7 11.32 7 12 C6.01 12 5.02 12 4 12 C3.67 12.99 3.34 13.98 3 15 C2.67 14.34 2.34 13.68 2 13 C-0.32156597 12.59270772 -2.6568787 12.25561323 -5 12 C-3.68 11.01 -2.36 10.02 -1 9 C-1.969375 8.401875 -2.93875 7.80375 -3.9375 7.1875 C-7 5 -7 5 -8 2 C-6.8553125 2.061875 -6.8553125 2.061875 -5.6875 2.125 C-2.77281584 2.22080824 -2.77281584 2.22080824 0 0 Z " fill="#BFBFBF" transform="translate(153,360)"/>
<path d="M0 0 C3.3125 -0.25 3.3125 -0.25 7 0 C8.9375 1.6875 8.9375 1.6875 10 4 C10.1875 6.75 10.1875 6.75 10 9 C8.35 9.33 6.7 9.66 5 10 C5 9.34 5 8.68 5 8 C4.195625 7.7525 3.39125 7.505 2.5625 7.25 C0 6 0 6 -0.875 4 C-1 2 -1 2 0 0 Z " fill="#E5E5E5" transform="translate(155,362)"/>
<path d="M0 0 C1.89575251 -0.02721176 3.79161979 -0.04649136 5.6875 -0.0625 C6.74324219 -0.07410156 7.79898438 -0.08570313 8.88671875 -0.09765625 C11.72410262 -0.00865425 14.2438919 0.35060162 17 1 C17 2.65 17 4.3 17 6 C14.11788698 6.96070434 12.30149956 7.10581883 9.3125 7.0625 C8.10013672 7.04896484 8.10013672 7.04896484 6.86328125 7.03515625 C5.94095703 7.01775391 5.94095703 7.01775391 5 7 C4.67 5.02 4.34 3.04 4 1 C2.68 0.67 1.36 0.34 0 0 Z " fill="#2D2D2D" transform="translate(181,355)"/>
<path d="M0 0 C0.33 0 0.66 0 1 0 C1.33 1.65 1.66 3.3 2 5 C3.32 4.67 4.64 4.34 6 4 C7.18124575 8.13436011 6.69220426 10.11788435 5 14 C5 15.32 5 16.64 5 18 C4.67 18.99 4.34 19.98 4 21 C3.34 21 2.68 21 2 21 C1.855625 19.948125 1.71125 18.89625 1.5625 17.8125 C1.08865298 14.22257768 1.08865298 14.22257768 0.4375 11.625 C-0.20754953 7.75470282 -0.07675225 3.91436469 0 0 Z " fill="#575757" transform="translate(92,197)"/>
<path d="M0 0 C0 1.65 0 3.3 0 5 C-1.65 5.33 -3.3 5.66 -5 6 C-5 5.67 -5 5.34 -5 5 C-8.96 5 -12.92 5 -17 5 C-17.33 4.34 -17.66 3.68 -18 3 C-15.94237091 2.29805625 -13.87863969 1.61398303 -11.8125 0.9375 C-10.66394531 0.55464844 -9.51539063 0.17179687 -8.33203125 -0.22265625 C-5.02545492 -0.99406151 -3.20917686 -0.96093996 0 0 Z " fill="#C6C6C6" transform="translate(179,390)"/>
<path d="M0 0 C0.66 0.33 1.32 0.66 2 1 C1.67 1.99 1.34 2.98 1 4 C1.99 4.33 2.98 4.66 4 5 C4.33 7.64 4.66 10.28 5 13 C4.01 13.33 3.02 13.66 2 14 C1.67 14.99 1.34 15.98 1 17 C0.34 17 -0.32 17 -1 17 C-1 16.01 -1 15.02 -1 14 C-2.32 13.34 -3.64 12.68 -5 12 C-5 11.34 -5 10.68 -5 10 C-2.525 10.99 -2.525 10.99 0 12 C0 8.04 0 4.08 0 0 Z " fill="#212121" transform="translate(100,214)"/>
<path d="M0 0 C3.3 0 6.6 0 10 0 C10 1.32 10 2.64 10 4 C9.01 4.33 8.02 4.66 7 5 C8.32 5.33 9.64 5.66 11 6 C11 6.66 11 7.32 11 8 C9.26969709 7.71515154 7.54079286 7.42180062 5.8125 7.125 C4.84957031 6.96257812 3.88664063 6.80015625 2.89453125 6.6328125 C0.08967396 6.01960483 -2.37224747 5.14333657 -5 4 C-4.67 3.34 -4.34 2.68 -4 2 C-1.69 2.33 0.62 2.66 3 3 C3 2.34 3 1.68 3 1 C2.01 0.67 1.02 0.34 0 0 Z " fill="#A4A4A4" transform="translate(162,346)"/>
<path d="M0 0 C1.32 0.33 2.64 0.66 4 1 C3.44687265 5.02992782 2.8441938 9.02022924 2 13 C1.34 13 0.68 13 0 13 C0 13.66 0 14.32 0 15 C0.66 15 1.32 15 2 15 C2 15.66 2 16.32 2 17 C1.01 17 0.02 17 -1 17 C-2.36271133 14.27457733 -2.16923601 12.03912726 -2.1875 9 C-2.20167969 7.9275 -2.21585937 6.855 -2.23046875 5.75 C-2 3 -2 3 0 1 C0 0.67 0 0.34 0 0 Z " fill="#555555" transform="translate(124,275)"/>
<path d="M0 0 C0.99 0.33 1.98 0.66 3 1 C4.22517308 6.66642551 4.09228867 12.23708518 4 18 C3.01 17.67 2.02 17.34 1 17 C0.09586327 13.16275828 -0.10576898 9.62497726 -0.0625 5.6875 C-0.05347656 4.61886719 -0.04445312 3.55023438 -0.03515625 2.44921875 C-0.02355469 1.64097656 -0.01195312 0.83273438 0 0 Z " fill="#565656" transform="translate(135,245)"/>
<path d="M0 0 C0.66 0.33 1.32 0.66 2 1 C2 1.66 2 2.32 2 3 C2.66 3.33 3.32 3.66 4 4 C4.75 7.375 4.75 7.375 5 11 C4.01 12.485 4.01 12.485 3 14 C3 15.32 3 16.64 3 18 C1.68 17.67 0.36 17.34 -1 17 C-0.74863281 16.02160156 -0.74863281 16.02160156 -0.4921875 15.0234375 C0.74685535 9.7065321 1.43193777 6.13409085 -1 1 C-0.67 0.67 -0.34 0.34 0 0 Z " fill="#121212" transform="translate(116,266)"/>
<path d="M0 0 C2.34290892 2.48434437 2.97982934 3.77731593 3.29296875 7.234375 C3.25816406 8.39453125 3.22335938 9.5546875 3.1875 10.75 C3.16042969 11.92046875 3.13335937 13.0909375 3.10546875 14.296875 C3.07066406 15.18890625 3.03585938 16.0809375 3 17 C2.34 17 1.68 17 1 17 C0.87882813 16.28972656 0.75765625 15.57945312 0.6328125 14.84765625 C0.46523437 13.92855469 0.29765625 13.00945312 0.125 12.0625 C-0.11863281 10.68771484 -0.11863281 10.68771484 -0.3671875 9.28515625 C-0.57601562 8.53105469 -0.78484375 7.77695313 -1 7 C-1.66 6.67 -2.32 6.34 -3 6 C-3.33 7.32 -3.66 8.64 -4 10 C-4.33 7.69 -4.66 5.38 -5 3 C-3.68 3 -2.36 3 -1 3 C-0.67 2.01 -0.34 1.02 0 0 Z " fill="#303030" transform="translate(138,239)"/>
<path d="M0 0 C0.33 0 0.66 0 1 0 C1.19600577 2.22843488 1.38146569 4.45779893 1.5625 6.6875 C1.66691406 7.92886719 1.77132812 9.17023438 1.87890625 10.44921875 C1.98493841 13.55835533 1.77228525 16.00810972 1 19 C-2.04049059 15.67070292 -2.38427311 13.39295352 -2.3125 8.9375 C-2.30863281 7.89464844 -2.30476563 6.85179687 -2.30078125 5.77734375 C-2 3 -2 3 0 0 Z " fill="#424242" transform="translate(108,200)"/>
<path d="M0 0 C0.66 4.62 1.32 9.24 2 14 C1.01 14 0.02 14 -1 14 C-1.33 13.34 -1.66 12.68 -2 12 C-2.66 12 -3.32 12 -4 12 C-4.33 12.66 -4.66 13.32 -5 14 C-5.22991927 9.28665497 -4.57210668 5.45430227 -3 1 C-1 0 -1 0 0 0 Z " fill="#131313" transform="translate(168,231)"/>
<path d="M0 0 C0.99 0.33 1.98 0.66 3 1 C4.00259507 4.00778521 4.30314642 6.53820647 4.5625 9.6875 C4.64628906 10.68136719 4.73007813 11.67523438 4.81640625 12.69921875 C4.87699219 13.45847656 4.93757812 14.21773438 5 15 C3.35 14.67 1.7 14.34 0 14 C0 9.38 0 4.76 0 0 Z " fill="#151515" transform="translate(145,250)"/>
<path d="M0 0 C0.66 1.32 1.32 2.64 2 4 C3.98491642 3.73323796 3.98491642 3.73323796 6 3 C6.33 2.01 6.66 1.02 7 0 C7.66 0 8.32 0 9 0 C9 0.66 9 1.32 9 2 C9.66 2 10.32 2 11 2 C10.67 2.99 10.34 3.98 10 5 C9.34 4.67 8.68 4.34 8 4 C8 4.66 8 5.32 8 6 C4 6 0 6 -4 6 C-4.33 5.34 -4.66 4.68 -5 4 C-4.34 4 -3.68 4 -3 4 C-2.67 3.34 -2.34 2.68 -2 2 C-1.67 2.33 -1.34 2.66 -1 3 C-0.67 2.01 -0.34 1.02 0 0 Z " fill="#9C9C9C" transform="translate(203,376)"/>
<path d="M0 0 C1.32 0.66 2.64 1.32 4 2 C3.34 2 2.68 2 2 2 C1.67 2.66 1.34 3.32 1 4 C-1.3125 6.1875 -1.3125 6.1875 -4 8 C-6.3125 7.75 -6.3125 7.75 -8 7 C-8 6.34 -8 5.68 -8 5 C-8.66 5 -9.32 5 -10 5 C-10 4.34 -10 3.68 -10 3 C-8.02 3 -6.04 3 -4 3 C-3.67 2.34 -3.34 1.68 -3 1 C-3 1.66 -3 2.32 -3 3 C-2.34 3 -1.68 3 -1 3 C-0.67 2.01 -0.34 1.02 0 0 Z " fill="#BABABA" transform="translate(188,384)"/>
<path d="M0 0 C0.66 0 1.32 0 2 0 C1.67 1.65 1.34 3.3 1 5 C1.99 5 2.98 5 4 5 C4 4.01 4 3.02 4 2 C4.66 2 5.32 2 6 2 C5.67 3.65 5.34 5.3 5 7 C5.66 7.33 6.32 7.66 7 8 C6.34 8 5.68 8 5 8 C5 8.66 5 9.32 5 10 C3.68 10 2.36 10 1 10 C0.67 9.01 0.34 8.02 0 7 C-0.66 6.67 -1.32 6.34 -2 6 C-2 5.01 -2 4.02 -2 3 C-1.34 3 -0.68 3 0 3 C0 2.01 0 1.02 0 0 Z " fill="#5D5D5D" transform="translate(106,263)"/>
<path d="M0 0 C1.32 0 2.64 0 4 0 C4 4 4 4 3.4375 6.5625 C2.7763694 9.1271951 2.7763694 9.1271951 4 12 C4.66 12.33 5.32 12.66 6 13 C4.02 13.99 4.02 13.99 2 15 C1.67 14.34 1.34 13.68 1 13 C1.66 13 2.32 13 3 13 C3 12.34 3 11.68 3 11 C2.34 11 1.68 11 1 11 C0.12132271 7.26562152 -0.08912219 3.83225427 0 0 Z " fill="#3B3B3B" transform="translate(105,171)"/>
<path d="M0 0 C2.475 0.99 2.475 0.99 5 2 C5 2.99 5 3.98 5 5 C5.66 5 6.32 5 7 5 C6.67 5.99 6.34 6.98 6 8 C3.525 7.01 3.525 7.01 1 6 C1 7.98 1 9.96 1 12 C0.67 12 0.34 12 0 12 C0 8.04 0 4.08 0 0 Z " fill="#4E4E4E" transform="translate(134,230)"/>
<path d="M0 0 C1.98 0.99 3.96 1.98 6 3 C6 3.66 6 4.32 6 5 C5.01 5 4.02 5 3 5 C2.67 5.99 2.34 6.98 2 8 C1.67 7.34 1.34 6.68 1 6 C-1.32156597 5.59270772 -3.6568787 5.25561323 -6 5 C-5.195625 4.360625 -4.39125 3.72125 -3.5625 3.0625 C-1.7249496 1.59396498 -1.7249496 1.59396498 0 0 Z " fill="#646464" transform="translate(154,367)"/>
<path d="M0 0 C0.99 0 1.98 0 3 0 C3.33 2.31 3.66 4.62 4 7 C3.01 7.66 2.02 8.32 1 9 C0.34 9.99 -0.32 10.98 -1 12 C-1.02712066 10.56260487 -1.04645067 9.12506137 -1.0625 7.6875 C-1.07410156 6.88699219 -1.08570312 6.08648437 -1.09765625 5.26171875 C-1 3 -1 3 0 0 Z " fill="#373737" transform="translate(128,166)"/>
<path d="M0 0 C0.99 0 1.98 0 3 0 C3.33 2.64 3.66 5.28 4 8 C2.68 8 1.36 8 0 8 C-1.34164079 8.2981424 -2.67851173 8.62243192 -4 9 C-3.67 7.35 -3.34 5.7 -3 4 C-2.01 4.33 -1.02 4.66 0 5 C0 3.35 0 1.7 0 0 Z " fill="#454545" transform="translate(111,268)"/>
<path d="M0 0 C0 1.32 0 2.64 0 4 C-2.475 3.01 -2.475 3.01 -5 2 C-4.319375 2.5775 -3.63875 3.155 -2.9375 3.75 C-2.298125 4.4925 -1.65875 5.235 -1 6 C-1.25 8.25 -1.25 8.25 -2 10 C-4.5625 7.8125 -4.5625 7.8125 -7 5 C-6.8125 2.1875 -6.8125 2.1875 -6 0 C-2.25 -1.125 -2.25 -1.125 0 0 Z " fill="#666666" transform="translate(100,222)"/>
<path d="M0 0 C2.64 0 5.28 0 8 0 C8 0.66 8 1.32 8 2 C7.01 2.495 7.01 2.495 6 3 C6 3.66 6 4.32 6 5 C4.68 4.67 3.36 4.34 2 4 C1.67 4.66 1.34 5.32 1 6 C-0.65 6 -2.3 6 -4 6 C-2.68 5.67 -1.36 5.34 0 5 C0 4.34 0 3.68 0 3 C-0.66 2.67 -1.32 2.34 -2 2 C-1.34 2 -0.68 2 0 2 C0 1.34 0 0.68 0 0 Z " fill="#CACACA" transform="translate(187,390)"/>
<path d="M0 0 C0.66 0.99 1.32 1.98 2 3 C2.66 2.67 3.32 2.34 4 2 C4 3.32 4 4.64 4 6 C4.66 6 5.32 6 6 6 C5.67 6.99 5.34 7.98 5 9 C5 8.34 5 7.68 5 7 C4.01 7 3.02 7 2 7 C2 9.31 2 11.62 2 14 C0 12 0 12 -0.0625 8.625 C-0.041875 7.42875 -0.02125 6.2325 0 5 C-0.31674575 3.66262906 -0.64270064 2.32711192 -1 1 C-0.67 0.67 -0.34 0.34 0 0 Z " fill="#2F2F2F" transform="translate(138,267)"/>
<path d="M0 0 C0.33 0 0.66 0 1 0 C1.04254356 1.99954746 1.04080783 4.00041636 1 6 C0 7 0 7 -3.0625 7.0625 C-4.5165625 7.0315625 -4.5165625 7.0315625 -6 7 C-5.42655063 4.13275314 -5.1385485 3.1385485 -3 1 C-2.01 1.33 -1.02 1.66 0 2 C0 1.34 0 0.68 0 0 Z " fill="#3C3C3C" transform="translate(106,253)"/>
<path d="M0 0 C1.32 0.33 2.64 0.66 4 1 C3.67 3.97 3.34 6.94 3 10 C3.99 10.33 4.98 10.66 6 11 C5.01 11.495 5.01 11.495 4 12 C3.34 11.67 2.68 11.34 2 11 C1.67 11.99 1.34 12.98 1 14 C-0.38226016 11.23547967 -0.09525387 8.9538637 -0.0625 5.875 C-0.05347656 4.77929688 -0.04445313 3.68359375 -0.03515625 2.5546875 C-0.02355469 1.71164063 -0.01195313 0.86859375 0 0 Z " fill="#5A5A5A" transform="translate(95,233)"/>
<path d="M0 0 C4.75 0.875 4.75 0.875 7 2 C7 1.34 7 0.68 7 0 C8.32 0 9.64 0 11 0 C11 0.66 11 1.32 11 2 C11.66 2.66 12.32 3.32 13 4 C11.35 4 9.7 4 8 4 C8 4.66 8 5.32 8 6 C7.34 6 6.68 6 6 6 C6 5.01 6 4.02 6 3 C4.68 3 3.36 3 2 3 C2 2.34 2 1.68 2 1 C1.34 0.67 0.68 0.34 0 0 Z " fill="#969696" transform="translate(152,378)"/>
<path d="M0 0 C0.99 0.33 1.98 0.66 3 1 C3 4.90432869 2.31626692 7.38026598 1 11 C0.34 11 -0.32 11 -1 11 C-1.33 8.69 -1.66 6.38 -2 4 C-1.34 4 -0.68 4 0 4 C0 2.68 0 1.36 0 0 Z " fill="#484848" transform="translate(95,207)"/>
<path d="M0 0 C0.99 0 1.98 0 3 0 C2.67 2.64 2.34 5.28 2 8 C1.67 8 1.34 8 1 8 C0.67 5.36 0.34 2.72 0 0 Z M-3 1 C-2.01 1.33 -1.02 1.66 0 2 C-0.66 4.31 -1.32 6.62 -2 9 C-3.42944945 6.64561267 -4.08661261 5.51967567 -3.625 2.75 C-3.41875 2.1725 -3.2125 1.595 -3 1 Z " fill="#555555" transform="translate(96,188)"/>
<path d="M0 0 C0.66 1.32 1.32 2.64 2 4 C2.99 4 3.98 4 5 4 C5 4.66 5 5.32 5 6 C6.98 6 8.96 6 11 6 C9 8 9 8 7.0546875 8.1953125 C5.03645833 8.13020833 3.01822917 8.06510417 1 8 C0.67 7.01 0.34 6.02 0 5 C0.33 4.34 0.66 3.68 1 3 C0.34 2.67 -0.32 2.34 -1 2 C-0.67 1.34 -0.34 0.68 0 0 Z " fill="#3D3D3D" transform="translate(151,331)"/>
<path d="M0 0 C0.66 0 1.32 0 2 0 C2 1.65 2 3.3 2 5 C2.99 5.33 3.98 5.66 5 6 C5.33 6.99 5.66 7.98 6 9 C5.01 9.33 4.02 9.66 3 10 C0.9375 8.375 0.9375 8.375 -1 6 C-0.75 2.75 -0.75 2.75 0 0 Z " fill="#4F4F4F" transform="translate(117,260)"/>
<path d="M0 0 C0.66 0.33 1.32 0.66 2 1 C2 6.94 2 12.88 2 19 C1.34 19 0.68 19 0 19 C-0.1938211 16.02111874 -0.38035102 13.04209754 -0.5625 10.0625 C-0.61857422 9.21236328 -0.67464844 8.36222656 -0.73242188 7.48632812 C-0.80493164 6.27299805 -0.80493164 6.27299805 -0.87890625 5.03515625 C-0.9260376 4.2862915 -0.97316895 3.53742676 -1.02172852 2.76586914 C-1 1 -1 1 0 0 Z " fill="#474747" transform="translate(132,207)"/>
<path d="M0 0 C3.3 0 6.6 0 10 0 C8.515 1.98 8.515 1.98 7 4 C6.34 4 5.68 4 5 4 C4.67 4.66 4.34 5.32 4 6 C4 5.34 4 4.68 4 4 C2.35 3.67 0.7 3.34 -1 3 C-0.67 2.01 -0.34 1.02 0 0 Z " fill="#FAFAFA" transform="translate(146,372)"/>
<path d="M0 0 C5.445 1.485 5.445 1.485 11 3 C11 3.66 11 4.32 11 5 C7.7 5.33 4.4 5.66 1 6 C0.67 4.02 0.34 2.04 0 0 Z " fill="#464646" transform="translate(171,317)"/>
<path d="M0 0 C1.32 0.33 2.64 0.66 4 1 C4 1.66 4 2.32 4 3 C3.01 3 2.02 3 1 3 C1.33 4.98 1.66 6.96 2 9 C0.68 9.33 -0.64 9.66 -2 10 C-2 7.69 -2 5.38 -2 3 C-1.34 3 -0.68 3 0 3 C0 2.01 0 1.02 0 0 Z " fill="#333333" transform="translate(94,230)"/>
<path d="M0 0 C0.99 0.33 1.98 0.66 3 1 C3.125 7.625 3.125 7.625 2 11 C1.01 11.33 0.02 11.66 -1 12 C-1.10000385 8.49986539 -0.73880926 5.41699284 0 2 C0 1.34 0 0.68 0 0 Z " fill="#212121" transform="translate(166,217)"/>
<path d="M0 0 C0 0.99 0 1.98 0 3 C-3.73486879 3.5745952 -7.21293268 4 -11 4 C-10.67 3.01 -10.34 2.02 -10 1 C-2.25 0 -2.25 0 0 0 Z " fill="#A0A0A0" transform="translate(215,392)"/>
<path d="M0 0 C2.375 0.1875 2.375 0.1875 5 1 C6.3125 3.5625 6.3125 3.5625 7 6 C4.36 6.66 1.72 7.32 -1 8 C-1 7.34 -1 6.68 -1 6 C-0.34 6 0.32 6 1 6 C1.33 4.35 1.66 2.7 2 1 C1.34 0.67 0.68 0.34 0 0 Z " fill="#3C3C3C" transform="translate(193,377)"/>
<path d="M0 0 C0.99 0.33 1.98 0.66 3 1 C3 1.66 3 2.32 3 3 C3.639375 3.2475 4.27875 3.495 4.9375 3.75 C7 5 7 5 7.75 7.125 C7.87375 8.053125 7.87375 8.053125 8 9 C3.58110387 7.64978174 1.65654657 5.73884332 -1 2 C-0.67 1.34 -0.34 0.68 0 0 Z " fill="#B5B5B5" transform="translate(141,370)"/>
<path d="M0 0 C6.0546875 -0.1953125 6.0546875 -0.1953125 8 0 C8.66 0.66 9.32 1.32 10 2 C9.34 3.65 8.68 5.3 8 7 C7.01 7 6.02 7 5 7 C4.67 5.02 4.34 3.04 4 1 C2.68 0.67 1.36 0.34 0 0 Z " fill="#373737" transform="translate(181,355)"/>
<path d="M0 0 C-0.33 1.32 -0.66 2.64 -1 4 C-1.66 4 -2.32 4 -3 4 C-3.33 6.31 -3.66 8.62 -4 11 C-4.33 11 -4.66 11 -5 11 C-6.125 4.375 -6.125 4.375 -5 1 C-2 0 -2 0 0 0 Z " fill="#050505" transform="translate(168,228)"/>
<path d="M0 0 C2.97 0.33 5.94 0.66 9 1 C9 1.99 9 2.98 9 4 C8.34 4 7.68 4 7 4 C6.67 4.99 6.34 5.98 6 7 C5.34 7 4.68 7 4 7 C4 6.01 4 5.02 4 4 C2.68 3.34 1.36 2.68 0 2 C0 1.34 0 0.68 0 0 Z " fill="#333333" transform="translate(95,224)"/>
<path d="M0 0 C1.65 0.33 3.3 0.66 5 1 C5 2.65 5 4.3 5 6 C2.6875 6.625 2.6875 6.625 0 7 C-0.99 6.34 -1.98 5.68 -3 5 C-2.67 4.34 -2.34 3.68 -2 3 C-0.68 3 0.64 3 2 3 C2 2.34 2 1.68 2 1 C1.34 0.67 0.68 0.34 0 0 Z " fill="#868686" transform="translate(174,389)"/>
<path d="M0 0 C1.65 0 3.3 0 5 0 C4.67 2.31 4.34 4.62 4 7 C4.66 7 5.32 7 6 7 C5.67 7.99 5.34 8.98 5 10 C4.34 10 3.68 10 3 10 C3 8.02 3 6.04 3 4 C2.01 4 1.02 4 0 4 C0 2.68 0 1.36 0 0 Z " fill="#3C3C3C" transform="translate(104,188)"/>
<path d="M0 0 C1.32 0.33 2.64 0.66 4 1 C3.67 3.31 3.34 5.62 3 8 C2.01 8.33 1.02 8.66 0 9 C0 7.35 0 5.7 0 4 C-0.66 3.67 -1.32 3.34 -2 3 C-1.34 2.34 -0.68 1.68 0 1 C0 0.67 0 0.34 0 0 Z " fill="#373737" transform="translate(124,275)"/>
<path d="M0 0 C2.31 0 4.62 0 7 0 C7 0.33 7 0.66 7 1 C4.69 1.33 2.38 1.66 0 2 C0 1.34 0 0.68 0 0 Z M-1 2 C0.98 2.66 2.96 3.32 5 4 C4.34 5.32 3.68 6.64 3 8 C1 6.6875 1 6.6875 -1 5 C-1 4.01 -1 3.02 -1 2 Z " fill="#D1D1D1" transform="translate(155,362)"/>
<path d="M0 0 C0 0.33 0 0.66 0 1 C-1.98 1.33 -3.96 1.66 -6 2 C-6 2.66 -6 3.32 -6 4 C-7.98 4 -9.96 4 -12 4 C-12.33 3.01 -12.66 2.02 -13 1 C-8.60563789 0.14256349 -4.47427924 -0.08948558 0 0 Z " fill="#B1B1B1" transform="translate(168,342)"/>
<path d="M0 0 C0.33 0 0.66 0 1 0 C1 5.94 1 11.88 1 18 C0.34 18.33 -0.32 18.66 -1 19 C-1.38063221 16.6739143 -1.71269945 14.33944736 -2 12 C-1.67 11.67 -1.34 11.34 -1 11 C-0.76636119 9.15108054 -0.58696365 7.29511969 -0.4375 5.4375 C-0.35371094 4.42558594 -0.26992187 3.41367188 -0.18359375 2.37109375 C-0.12300781 1.58863281 -0.06242188 0.80617187 0 0 Z " fill="#4E4E4E" transform="translate(162,203)"/>
<path d="M0 0 C0.99 0 1.98 0 3 0 C2.67 2.97 2.34 5.94 2 9 C1.34 9 0.68 9 0 9 C-0.33 9.66 -0.66 10.32 -1 11 C-1.14285714 3.57142857 -1.14285714 3.57142857 0 0 Z " fill="#141414" transform="translate(128,174)"/>
<path d="M0 0 C2 0 2 0 3.625 1.375 C5 3 5 3 5 5 C1.77208445 7.1519437 0.71599191 7.20086443 -3 7 C-2.505 6.21625 -2.01 5.4325 -1.5 4.625 C0.16537965 2.21447673 0.16537965 2.21447673 0 0 Z " fill="#9F9F9F" transform="translate(190,375)"/>
<path d="M0 0 C-0.33 1.32 -0.66 2.64 -1 4 C-2.32 4 -3.64 4 -5 4 C-5.33 4.99 -5.66 5.98 -6 7 C-7.125 3.25 -7.125 3.25 -6 1 C-3 0 -3 0 0 0 Z " fill="#333333" transform="translate(171,321)"/>
<path d="M0 0 C1.98 0.495 1.98 0.495 4 1 C3.67 3.31 3.34 5.62 3 8 C1.68 7.67 0.36 7.34 -1 7 C-0.67 4.69 -0.34 2.38 0 0 Z " fill="#2F2F2F" transform="translate(116,276)"/>
<path d="M0 0 C0.66 0.33 1.32 0.66 2 1 C1.67 4.3 1.34 7.6 1 11 C0.34 11 -0.32 11 -1 11 C-1.33 11.66 -1.66 12.32 -2 13 C-2.23509196 8.18061476 -1.45184478 4.53701494 0 0 Z " fill="#1E1E1E" transform="translate(165,232)"/>
<path d="M0 0 C-0.33 3.63 -0.66 7.26 -1 11 C-4 7 -4 7 -3.8125 3.8125 C-3.544375 2.884375 -3.27625 1.95625 -3 1 C-1 0 -1 0 0 0 Z " fill="#525252" transform="translate(110,208)"/>
<path d="M0 0 C1.98 0.495 1.98 0.495 4 1 C3.01 1.495 3.01 1.495 2 2 C2.33 3.65 2.66 5.3 3 7 C1.68 6.67 0.36 6.34 -1 6 C-0.67 4.02 -0.34 2.04 0 0 Z " fill="#1A1A1A" transform="translate(160,261)"/>
<path d="M0 0 C0.99 0.33 1.98 0.66 3 1 C3 2.65 3 4.3 3 6 C3.66 6.33 4.32 6.66 5 7 C3.35 7.33 1.7 7.66 0 8 C0 5.36 0 2.72 0 0 Z " fill="#4E4E4E" transform="translate(92,166)"/>
<path d="M0 0 C1.43739513 -0.02712066 2.87493863 -0.04645067 4.3125 -0.0625 C5.51326172 -0.07990234 5.51326172 -0.07990234 6.73828125 -0.09765625 C9 0 9 0 12 1 C12 1.66 12 2.32 12 3 C7.53160785 3.21278058 4.17737474 2.59138085 0 1 C0 0.67 0 0.34 0 0 Z " fill="#C4C4C4" transform="translate(170,324)"/>
<path d="M0 0 C1.32 0 2.64 0 4 0 C3.34 2.31 2.68 4.62 2 7 C0.35 6.67 -1.3 6.34 -3 6 C-2.505 5.566875 -2.01 5.13375 -1.5 4.6875 C0.33218192 3.00259517 0.33218192 3.00259517 0 0 Z " fill="#545454" transform="translate(122,252)"/>
<path d="M0 0 C0.33 0.66 0.66 1.32 1 2 C1.99 2 2.98 2 4 2 C4 2.66 4 3.32 4 4 C3.34 4 2.68 4 2 4 C1.34 5.32 0.68 6.64 0 8 C-0.99 6.35 -1.98 4.7 -3 3 C-2.01 2.67 -1.02 2.34 0 2 C0 1.34 0 0.68 0 0 Z " fill="#1E1E1E" transform="translate(162,252)"/>
<path d="M0 0 C2 2 2 2 2 5 C0.35 5.66 -1.3 6.32 -3 7 C-3.66 6.01 -4.32 5.02 -5 4 C-4.34 4 -3.68 4 -3 4 C-2.67 3.34 -2.34 2.68 -2 2 C-1.67 2.33 -1.34 2.66 -1 3 C-0.67 2.01 -0.34 1.02 0 0 Z " fill="#ABABAB" transform="translate(203,376)"/>
<path d="M0 0 C1.42944945 2.35438733 2.08661261 3.48032433 1.625 6.25 C1.41875 6.8275 1.2125 7.405 1 8 C-0.32 7.67 -1.64 7.34 -3 7 C-2.67 6.34 -2.34 5.68 -2 5 C-1.34 5 -0.68 5 0 5 C0 4.34 0 3.68 0 3 C-0.66 3 -1.32 3 -2 3 C-1 1 -1 1 0 0 Z " fill="#A5A5A5" transform="translate(153,360)"/>
<path d="M0 0 C0.66 0 1.32 0 2 0 C2 1.65 2 3.3 2 5 C1.01 5 0.02 5 -1 5 C-1.33 5.66 -1.66 6.32 -2 7 C-2.33 5.68 -2.66 4.36 -3 3 C-2.01 2.67 -1.02 2.34 0 2 C0 1.34 0 0.68 0 0 Z " fill="#484848" transform="translate(111,257)"/>
<path d="M0 0 C0.66 0 1.32 0 2 0 C1.67 2.97 1.34 5.94 1 9 C0.34 8.67 -0.32 8.34 -1 8 C-0.67 5.36 -0.34 2.72 0 0 Z " fill="#4F4F4F" transform="translate(94,255)"/>
<path d="M0 0 C0.99 0.33 1.98 0.66 3 1 C3 2.32 3 3.64 3 5 C1.35 4.67 -0.3 4.34 -2 4 C-2 3.34 -2 2.68 -2 2 C-1.34 2 -0.68 2 0 2 C0 1.34 0 0.68 0 0 Z " fill="#E4E4E4" transform="translate(224,373)"/>
<path d="M0 0 C0.66 0 1.32 0 2 0 C2 0.66 2 1.32 2 2 C2.66 2 3.32 2 4 2 C4.33 1.34 4.66 0.68 5 0 C4.67 1.65 4.34 3.3 4 5 C2.68 4.67 1.36 4.34 0 4 C0 2.68 0 1.36 0 0 Z " fill="#858585" transform="translate(155,325)"/>
<path d="M0 0 C1.98 0 3.96 0 6 0 C6 0.99 6 1.98 6 3 C3.69 3 1.38 3 -1 3 C-0.67 2.01 -0.34 1.02 0 0 Z " fill="#AAAAAA" transform="translate(191,318)"/>
<path d="M0 0 C0.99 0.33 1.98 0.66 3 1 C3 4.3 3 7.6 3 11 C2.67 11 2.34 11 2 11 C1.34 7.37 0.68 3.74 0 0 Z " fill="#494949" transform="translate(160,233)"/>
<path d="M0 0 C0.99 0 1.98 0 3 0 C3 2.31 3 4.62 3 7 C2.01 7 1.02 7 0 7 C0 4.69 0 2.38 0 0 Z " fill="#050505" transform="translate(104,192)"/>
<path d="M0 0 C1.98 0 3.96 0 6 0 C5.67 1.32 5.34 2.64 5 4 C3.02 3.34 1.04 2.68 -1 2 C-0.67 1.34 -0.34 0.68 0 0 Z " fill="#C7C7C7" transform="translate(176,380)"/>
<path d="M0 0 C2.97 0.495 2.97 0.495 6 1 C6 1.66 6 2.32 6 3 C3.69 3 1.38 3 -1 3 C-0.67 2.01 -0.34 1.02 0 0 Z " fill="#141414" transform="translate(159,346)"/>
<path d="M0 0 C0.66 0 1.32 0 2 0 C2.66 2.97 3.32 5.94 4 9 C3.01 9 2.02 9 1 9 C0.67 6.03 0.34 3.06 0 0 Z " fill="#1B1B1B" transform="translate(169,261)"/>
<path d="M0 0 C0.66 0.99 1.32 1.98 2 3 C1.67 3.66 1.34 4.32 1 5 C1.66 5.33 2.32 5.66 3 6 C1.68 6 0.36 6 -1 6 C-1 5.01 -1 4.02 -1 3 C-1.66 2.67 -2.32 2.34 -3 2 C-2.01 1.34 -1.02 0.68 0 0 Z " fill="#272727" transform="translate(130,192)"/>
<path d="M0 0 C0.33 0.66 0.66 1.32 1 2 C1.66 2 2.32 2 3 2 C3 3.32 3 4.64 3 6 C2.34 6 1.68 6 1 6 C0.67 7.32 0.34 8.64 0 10 C0 6.7 0 3.4 0 0 Z " fill="#3D3D3D" transform="translate(165,167)"/>
</svg>
